<svg width="1083" height="450" viewBox="0 0 1083 450" fill="none" xmlns="http://www.w3.org/2000/svg">
<path d="M1082.73 449.73H0.790117C0.520117 442.65 0.690019 435.66 0.690019 428.48C1.71002 428.41 2.45001 428.32 3.18001 428.31C6.24001 428.28 9.31017 428.49 12.3402 428.21C16.5002 427.82 19.2901 425.88 19.8001 421.43C19.9501 420.1 20.0401 418.76 20.0501 417.43C20.0901 410.84 20.0502 404.24 20.1202 397.65C20.1702 393.14 16.7701 390.08 12.5501 390.13C9.68013 390.17 6.81002 390.15 3.94002 390.15C3.00002 390.15 2.07005 390.15 1.22005 390.15C0.540048 387.84 0.400136 63.98 1.06014 60.47C4.10014 60.47 7.23018 60.49 10.3602 60.47C12.2702 60.45 14.0301 60.2599 15.8201 59.1899C18.3801 57.6499 19.3502 55.45 19.3502 52.77C19.3702 45.04 19.29 37.3001 19.13 29.5701C19.04 25.3301 16.1602 22.48 11.8702 22.23C8.82019 22.05 5.76004 22.0499 2.71004 21.9499C2.16004 21.9299 1.61018 21.85 0.860185 21.78C0.860185 14.81 0.860185 7.96987 0.860185 1.12987C3.03018 0.54987 1074.94 0.250065 1082.38 0.830065C1082.45 0.890065 1082.53 0.950007 1082.6 1.02001C1082.66 1.09001 1082.75 1.16998 1082.75 1.23998C1082.8 150.19 1082.85 299.14 1082.89 448.09C1082.89 448.55 1082.81 449.02 1082.74 449.75L1082.73 449.73ZM420.46 446.02C418.93 445.03 417.4 444.05 415.89 443.07C414.91 444.2 414.86 445.1 415.59 445.88C416.51 446.87 419 446.82 420.48 445.91C420.89 446.32 421.27 447.03 421.72 447.08C422.84 447.19 424.04 446.74 425.11 446.97C426.85 447.35 428.06 446.41 429.33 445.66C430.77 444.82 431.23 443.26 430.54 441.76C430.03 440.66 429.31 439.67 428.61 438.5C428.87 438 429.1 437.35 429.49 436.85C430.84 435.12 429.87 432.72 428.39 431.5C424.84 428.55 417.93 429.43 414.78 433.11C415.28 433.97 415.77 434.83 416.34 435.82C417.04 435.31 417.52 434.84 418.09 434.57C419.46 433.93 420.82 433.24 422.27 432.86C424.02 432.4 426.06 433.77 426.21 435.25C426.36 436.79 425.53 437.36 423.03 437.41C420.38 437.47 420.18 437.84 421.38 440.38C422.64 440.45 423.91 440.37 425.09 440.66C425.8 440.84 426.73 441.51 426.9 442.14C427.07 442.77 426.64 443.89 426.1 444.33C424.99 445.21 423.93 446.55 422.1 445.75C421.67 445.56 421 445.93 420.44 446.04L420.46 446.02ZM289.69 224.4H289.66C289.66 275.06 289.66 325.72 289.66 376.39C289.66 380.4 291.36 382.2 295.31 382.22C310.31 382.27 325.3 382.28 340.3 382.32C350.9 382.35 361.5 382.38 372.09 382.42C377.79 382.44 383.5 382.53 389.2 382.53C395.58 382.53 401.95 382.38 408.33 382.42C416.34 382.47 424.35 382.69 432.36 382.73C443.25 382.78 454.15 382.71 465.04 382.73C483.97 382.77 502.9 382.84 521.84 382.89C525.25 382.89 527.15 381.3 527.75 377.97C527.9 377.13 527.94 376.26 527.93 375.4C527.91 373.49 527.79 371.58 527.78 369.67C527.72 350.76 527.64 331.84 527.63 312.93C527.62 286.85 527.68 260.77 527.69 234.69C527.69 218.83 527.65 202.97 527.66 187.11C527.66 172.78 527.71 158.45 527.72 144.12C527.73 126.92 527.72 109.72 527.74 92.52C527.74 85.55 527.8 78.5801 527.76 71.6101C527.74 67.1601 526.39 65.91 521.87 65.8201C519.2 65.7701 516.52 65.57 513.85 65.56C502.28 65.51 490.71 65.5 479.14 65.5C453.52 65.5 427.91 65.54 402.29 65.55C381.46 65.55 360.62 65.53 339.79 65.55C325.74 65.57 311.69 65.6699 297.65 65.6699C291.32 65.6699 289.64 67.3401 289.65 73.8501C289.72 124.03 289.69 174.22 289.69 224.4ZM1060.31 224.22H1060.45C1060.45 205 1060.45 185.79 1060.45 166.57C1060.44 143.34 1060.4 120.11 1060.38 96.8799C1060.38 88.0899 1060.41 79.29 1060.36 70.5C1060.34 67.62 1059.05 66.3299 1056.21 66.1499C1054.78 66.0599 1053.34 66.1201 1051.91 66.1101C1032.78 66.0001 1013.66 65.84 994.53 65.81C972.15 65.77 949.77 65.8401 927.39 65.8501C911.71 65.8501 896.02 65.8301 880.34 65.8501C864.85 65.8701 849.36 65.92 833.88 65.99C831.21 66 828.53 66.09 825.87 66.3201C824.09 66.4801 822.97 67.6699 822.69 69.4399C822.49 70.7599 822.41 72.0999 822.41 73.4299C822.39 81.7499 822.46 90.0699 822.37 98.3799C822.34 101.03 821.86 103.68 821.62 106.33C821.54 107.18 821.4 108.08 821.61 108.88C822.98 114.17 822.19 119.54 822.32 124.87C822.34 125.52 822.16 126.2 821.98 126.84C821.09 130.03 821.21 133.2 821.7 136.45C822.05 138.77 822.39 141.27 821.91 143.51C821.05 147.52 821.13 151.57 821.55 155.47C822.05 160.14 822.19 164.79 822.31 169.45C822.43 174.32 822.51 179.21 822.27 184.07C822.03 189 822.23 193.91 822.25 198.83C822.39 233.63 822.3 268.42 822.25 303.22C822.25 305.41 821.86 307.59 821.81 309.78C821.71 313.96 821.68 318.14 821.69 322.32C821.69 323.64 822.16 325.01 821.95 326.28C821.15 331.22 821.31 336.18 821.42 341.14C821.67 353.35 820.6 365.58 822.16 377.77C822.58 381.04 824.12 382.78 827.33 382.84C827.9 382.85 828.48 382.85 829.05 382.84C845.12 382.8 861.18 382.74 877.25 382.72C888.81 382.7 900.37 382.76 911.92 382.72C923.94 382.66 935.97 382.49 947.99 382.41C954.25 382.37 960.5 382.41 966.76 382.44C972.47 382.46 978.17 382.53 983.88 382.51C991.02 382.49 998.16 382.39 1005.31 382.35C1010.63 382.32 1015.96 382.35 1021.28 382.34C1026.04 382.34 1030.8 382.3 1035.56 382.29C1042.52 382.27 1049.49 382.29 1056.45 382.24C1058.25 382.23 1059.73 381.05 1060.15 379.35C1060.33 378.62 1060.3 377.83 1060.3 377.07C1060.3 326.11 1060.3 275.16 1060.3 224.2L1060.31 224.22ZM24.5301 223.64C24.4801 223.64 24.43 223.64 24.38 223.64C24.38 228.8 24.38 233.96 24.38 239.12C24.36 266.55 24.3201 293.98 24.3101 321.41C24.3001 339.95 24.3001 358.49 24.3101 377.03C24.3101 380.55 25.6001 381.94 29.0601 382.06C32.4001 382.18 35.7502 382.16 39.0902 382.17C54.4802 382.17 69.8701 382.17 85.2701 382.17C97.4101 382.17 109.55 382.17 121.7 382.19C130.78 382.2 139.86 382.21 148.94 382.26C155.82 382.3 162.7 382.44 169.57 382.48C180.07 382.55 190.57 382.57 201.07 382.63C219.53 382.73 237.98 382.86 256.44 382.95C259.8 382.97 261.9 380.96 262.16 377.57C262.25 376.33 262.25 375.09 262.25 373.85C262.23 358.95 262.19 344.04 262.19 329.14C262.19 317.78 262.3 306.41 262.29 295.05C262.28 284.27 262.14 273.48 262.12 262.7C262.1 252.87 262.18 243.03 262.18 233.2C262.18 213.14 262.18 193.07 262.18 173.01C262.18 160.02 262.19 147.02 262.2 134.03C262.2 124.38 262.19 114.74 262.22 105.09C262.26 94.1001 262.39 83.1101 262.38 72.1201C262.38 67.4901 260.79 65.8199 256.21 65.6899C250.48 65.5199 244.75 65.6 239.02 65.55C226.61 65.45 214.19 65.29 201.78 65.24C191.08 65.2 180.39 65.34 169.69 65.3C157.56 65.26 145.43 65.06 133.31 65.04C99.6501 64.97 65.9902 64.9699 32.3302 64.8799C30.3602 64.8799 28.63 65.2999 26.89 66.1499C25.34 66.8999 24.6001 68.1 24.5601 69.75C24.5301 70.89 24.63 72.0399 24.63 73.1899C24.59 86.7399 24.5201 100.3 24.5101 113.85C24.5001 129.52 24.5401 145.19 24.5501 160.85C24.5501 181.78 24.5501 202.71 24.5501 223.64H24.5301ZM794.57 224.47H794.55C794.55 199.14 794.55 173.82 794.55 148.49C794.55 130.24 794.53 111.98 794.52 93.73C794.52 86.18 794.56 78.6301 794.52 71.0801C794.5 67.5201 792.9 65.7799 789.62 65.6899C784.46 65.5499 779.3 65.4299 774.14 65.4099C767.07 65.3799 760 65.47 752.93 65.48C736.2 65.51 719.47 65.5 702.74 65.56C695 65.59 687.26 65.81 679.51 65.81C670.24 65.81 660.97 65.6401 651.7 65.5901C645.01 65.5601 638.32 65.6101 631.63 65.6101C620.35 65.6101 609.07 65.5701 597.8 65.6201C586.33 65.6801 574.86 65.8599 563.39 65.9499C558.02 65.9899 557.03 66.89 556.98 72.25C556.92 77.98 556.94 83.7199 556.93 89.4599C556.9 118.13 556.85 146.8 556.84 175.47C556.83 206.53 556.86 237.59 556.84 268.65C556.84 269.97 556.63 271.32 556.29 272.59C555.79 274.47 555.27 276.23 556.52 278.08C556.95 278.71 556.87 279.74 556.87 280.59C556.87 304.19 556.83 327.78 556.81 351.38C556.81 360.17 556.79 368.97 556.81 377.76C556.81 380.41 557.7 381.58 560.26 382.24C561.44 382.55 562.71 382.65 563.94 382.66C571.2 382.7 578.46 382.66 585.72 382.69C606.66 382.75 627.61 382.83 648.55 382.9C675.9 382.98 703.26 383.07 730.61 383.14C749.93 383.19 769.25 383.24 788.57 383.28C792.39 383.28 794.32 381.42 794.56 377.56C794.61 376.7 794.65 375.84 794.65 374.98C794.63 345.16 794.59 315.34 794.57 285.52C794.56 265.17 794.57 244.81 794.57 224.46V224.47ZM888.07 42.24C888.07 42.24 888.11 42.24 888.14 42.24C888.14 38.99 888.11 35.74 888.15 32.49C888.18 30.4 887.96 28.5199 886.59 26.6899C885.09 24.6799 883.46 23.5 880.93 23.53C876.82 23.57 872.7 23.56 868.59 23.52C866.67 23.5 864.51 23.35 863.22 24.77C861.48 26.7 859.85 28.8401 859.98 31.8201C860.14 35.4001 860.04 38.9901 859.98 42.5701C859.92 46.2801 859.72 49.9899 859.72 53.6999C859.72 55.0099 859.66 56.7201 860.4 57.5701C862.41 59.8701 864.5 62.3 868.07 62.25C871.89 62.2 875.72 62.33 879.55 62.29C884.09 62.24 888.01 58.28 888.05 53.73C888.09 49.91 888.05 46.08 888.05 42.26L888.07 42.24ZM921.98 42.9099C921.98 46.5399 921.98 50.17 921.98 53.79C921.98 58.58 925.54 62.17 930.4 62.24C934.32 62.3 938.24 62.29 942.16 62.27C942.91 62.27 943.75 62.2799 944.39 61.9599C947.78 60.25 950.14 57.6199 950.21 53.6899C950.35 45.9499 950.25 38.22 950.26 30.48C950.26 27.69 947.91 26.3 946.59 24.3C946.48 24.13 946.06 24.1501 945.78 24.1201C943.89 23.9201 942 23.6001 940.1 23.5701C936.66 23.5101 933.22 23.7401 929.79 23.6201C927.65 23.5401 925.71 23.9101 924.45 25.6101C923.25 27.2301 921.82 28.7699 921.94 31.1599C922.13 35.0699 921.99 38.9899 921.99 42.9099H921.98ZM984.19 43.1499H984.17C984.17 46.9699 984.12 50.7901 984.18 54.6101C984.24 58.7001 987.62 62.0999 991.75 62.1999C995.76 62.2999 999.77 62.3 1003.78 62.26C1008.66 62.2 1011.75 59.18 1011.95 54.29C1012.03 52.29 1011.91 50.28 1011.95 48.28C1012.04 42.47 1012.26 36.6601 1012.22 30.8501C1012.2 28.1901 1010.74 25.9699 1008.48 24.6399C1007.24 23.9099 1005.58 23.6601 1004.1 23.6001C1000.19 23.4601 996.28 23.4601 992.37 23.6001C990.81 23.6601 988.93 23.7899 987.78 24.6699C985.59 26.3399 984.02 28.5699 984.16 31.6999C984.33 35.5099 984.2 39.3299 984.2 43.1499H984.19ZM206.24 409.33C206.24 409.33 206.3 409.33 206.33 409.33C206.33 405.51 206.5 401.68 206.27 397.87C206.1 394.98 205.31 392.33 201.98 391.19C200.7 390.75 199.54 390.34 198.18 390.35C194.17 390.37 190.15 390.2 186.14 390.3C183.23 390.38 180.92 391.61 179.36 394.28C178.43 395.88 178.3 397.5 178.3 399.22C178.29 406 178.48 412.79 178.19 419.56C177.99 424.07 181.55 428.83 186.98 428.66C190.8 428.54 194.64 428.78 198.45 428.6C203.13 428.38 205.98 425.3 206.2 420.78C206.38 416.97 206.24 413.14 206.24 409.32V409.33ZM577.83 42.4499C577.77 42.4499 577.72 42.4499 577.66 42.4499C577.66 38.1699 577.73 33.8801 577.63 29.6001C577.57 27.0801 575.25 23.27 571.86 23.27C571.1 23.27 570.35 23.07 569.59 23.06C565.59 23.02 561.58 22.9 557.59 23.06C555.43 23.14 553.15 23.5001 551.82 25.5701C550.48 27.6501 549.44 29.7799 549.57 32.4599C549.77 36.5399 549.56 40.63 549.62 44.72C549.67 47.76 549.83 50.8101 550.02 53.8501C550.28 58.0401 553.65 61.4101 557.86 61.3401C561.76 61.2701 565.67 61.56 569.58 61.47C571.13 61.43 572.96 61.17 574.15 60.31C576.6 58.54 578.13 56.13 577.89 52.76C577.64 49.35 577.84 45.9 577.84 42.47L577.83 42.4499ZM68.8602 390.16C68.8602 390.16 68.8602 390.18 68.8602 390.19C66.5702 390.19 64.2701 390.1 61.9801 390.22C59.6501 390.34 57.3201 391.06 55.9901 392.97C54.8901 394.54 54.3102 396.48 54.3402 398.62C54.4702 405.69 54.3002 412.76 54.3602 419.83C54.4102 425.8 57.2602 427.71 62.6202 428.32C66.5702 428.77 70.67 428.6 74.63 428.15C79.82 427.56 81.9002 425.34 82.1102 420.18C82.1802 418.47 82.17 416.75 82.18 415.04C82.22 409.03 82.3201 403.02 82.2501 397C82.2001 393.02 78.3 389.96 74.89 390.13C72.89 390.23 70.8702 390.15 68.8702 390.15L68.8602 390.16ZM488.61 409.64C488.61 411.65 488.61 413.66 488.61 415.66C488.61 417.76 488.55 419.87 488.68 421.97C488.89 425.47 492.07 428.73 495.51 428.83C500.18 428.97 504.87 429.07 509.54 428.86C512.19 428.74 514.25 427.35 515.66 424.81C516.78 422.78 516.53 420.75 516.55 418.7C516.64 411.94 516.73 405.18 516.57 398.42C516.51 396.18 515.67 393.86 513.72 392.46C512.01 391.23 510 390.57 507.8 390.66C505.32 390.76 502.84 390.67 500.36 390.76C498.37 390.83 496.36 390.87 494.41 391.23C490.57 391.92 488.68 394.25 488.62 398.17C488.56 401.99 488.61 405.82 488.61 409.64ZM515.65 42.3601C515.65 42.3601 515.58 42.3601 515.55 42.3601C515.55 38.0701 515.6 33.79 515.51 29.5C515.49 28.5 515.1 27.46 514.68 26.53C513.33 23.58 510.64 22.9399 507.78 22.9099C503.49 22.8799 499.19 22.9701 494.9 23.0901C492.23 23.1701 490.04 24.32 488.91 26.78C488.29 28.12 488.01 29.7099 487.98 31.1999C487.89 36.0599 488.02 40.93 488 45.79C487.99 48.27 487.75 50.74 487.76 53.22C487.77 57.46 490.84 60.8801 495 61.1201C499.28 61.3701 503.58 61.4999 507.88 61.4399C512.61 61.3799 515.56 58.28 515.65 53.5C515.72 49.78 515.66 46.0601 515.66 42.3501L515.65 42.3601ZM144.14 408.63C144.08 408.63 144.02 408.63 143.96 408.63C143.96 404.72 143.87 400.8 143.99 396.9C144.1 393 140.77 390.51 137.47 390.37C133.09 390.19 128.69 390.15 124.31 390.22C119.61 390.29 116.28 393.37 116.37 398.37C116.49 405.53 116.32 412.69 116.39 419.86C116.41 421.44 116.89 423.04 117.26 424.6C117.38 425.1 117.77 425.65 118.19 425.94C120.07 427.24 121.97 428.49 124.42 428.47C128.04 428.43 131.67 428.62 135.28 428.47C141.9 428.19 144.4 425.14 144.17 418.91C144.05 415.49 144.15 412.07 144.15 408.65L144.14 408.63ZM302.39 409.85C302.46 409.85 302.53 409.85 302.6 409.85C302.6 413.76 302.53 417.67 302.62 421.58C302.71 425.28 306.06 428.59 309.77 428.68C313.78 428.78 317.79 428.64 321.8 428.79C326.76 428.98 330.27 425.36 330.24 420.48C330.21 415.53 330.32 410.59 330.37 405.64C330.39 403.93 330.16 402.18 330.44 400.51C331.25 395.58 328.09 390.13 321.81 390.34C318.09 390.47 314.37 390.33 310.64 390.35C306.02 390.38 302.2 394.07 302.38 398.69C302.52 402.4 302.41 406.13 302.41 409.85H302.39ZM268.5 409.58C268.5 409.58 268.44 409.58 268.41 409.58C268.41 405.95 268.54 402.32 268.38 398.7C268.17 393.98 265.81 390.44 260.28 390.33C256.17 390.25 252.04 390.08 247.96 390.38C243.64 390.7 240.57 393.32 240.51 397.83C240.41 405.08 240.46 412.33 240.36 419.57C240.28 425.03 243.59 428.68 249.39 428.69C253.12 428.69 256.84 428.67 260.57 428.66C262.58 428.66 264.21 427.76 265.68 426.49C267.78 424.67 268.44 422.23 268.49 419.59C268.54 416.26 268.5 412.93 268.5 409.59V409.58ZM115.65 41.52C115.77 41.52 115.88 41.52 116 41.52C116 45.43 115.96 49.34 116.01 53.25C116.06 57.41 117.75 59.81 122.66 60.24C127.12 60.63 131.64 60.48 136.13 60.56C139.44 60.62 143.63 57.46 143.58 53.03C143.49 45.31 143.61 37.5801 143.39 29.8601C143.26 25.3201 140.26 22.8 136.48 22.52C131.82 22.18 127.11 22.22 122.44 22.48C119.64 22.64 116.99 23.66 116.35 27.04C116.14 28.14 115.72 29.2401 115.69 30.3401C115.61 34.0601 115.66 37.79 115.66 41.51L115.65 41.52ZM453.51 42.5701C453.56 42.5701 453.61 42.5701 453.67 42.5701C453.65 42.2801 453.63 42 453.62 41.7099C453.58 37.7999 453.76 33.87 453.44 29.99C453.05 25.22 451.27 23.5599 446.87 23.1699C442.14 22.7499 437.31 22.92 432.57 23.3C428.2 23.66 426.74 25.4299 425.79 30.4099C425.65 31.1499 425.75 31.9299 425.76 32.6999C425.79 36.9899 425.83 41.2901 425.87 45.5801C425.9 48.2501 425.91 50.9201 425.99 53.5901C426.13 58.3601 430.07 61.2599 433.72 61.1399C435.43 61.0899 437.16 61.3201 438.87 61.3201C441.54 61.3201 444.22 61.3599 446.88 61.1499C450.65 60.8499 453.34 58.1 453.49 54.29C453.64 50.39 453.52 46.4801 453.52 42.5701H453.51ZM205.32 41.9599C205.32 41.9599 205.34 41.9599 205.35 41.9599C205.35 37.8699 205.47 33.7699 205.32 29.6799C205.17 25.5699 202.25 22.67 198.2 22.54C194.01 22.4 189.79 22.23 185.61 22.48C181.1 22.75 177.97 24.6799 177.79 30.4199C177.65 34.7099 177.79 39 177.77 43.29C177.77 46.53 177.62 49.77 177.73 53C177.87 57.18 180.95 60.5 185.06 60.72C189.44 60.95 193.84 61.0001 198.22 60.8301C202.55 60.6501 205.21 57.7299 205.31 53.3899C205.39 49.5799 205.33 45.77 205.33 41.9599H205.32ZM53.69 41.9599C53.78 41.9599 53.87 41.9599 53.96 41.9599C53.96 43.68 53.96 45.4001 53.96 47.1201C53.96 48.8301 54.01 50.54 53.9 52.25C53.56 57.44 57.1201 60.1399 61.5301 60.3799C65.6201 60.6099 69.7301 60.67 73.8201 60.49C78.7301 60.28 81.4802 57.3499 81.5802 52.4199C81.6902 46.7899 81.63 41.17 81.63 35.54C81.63 33.63 81.7701 31.7101 81.5701 29.8201C81.0601 25.1201 78.3102 22.58 74.3602 22.28C69.9002 21.94 65.36 21.9301 60.92 22.3601C56.36 22.8001 54.31 24.6901 53.92 28.8201C53.79 30.2401 53.72 31.6701 53.7 33.1001C53.67 36.0501 53.7 39.0099 53.7 41.9599H53.69ZM1074.14 42.8501C1074.14 42.8501 1074.19 42.8501 1074.21 42.8501C1074.21 39.0401 1074.25 35.2199 1074.2 31.4099C1074.14 26.6899 1071.27 23.9001 1066.53 23.8201C1065.49 23.8001 1064.44 23.6299 1063.4 23.6399C1059.97 23.6699 1056.54 23.73 1053.11 23.8C1048.64 23.9 1046.62 27.72 1046.57 30.97C1046.44 39.17 1046.46 47.3801 1046.54 55.5801C1046.57 58.6201 1048.92 61.0699 1051.86 61.6799C1056.67 62.6799 1061.54 62.4899 1066.37 62.1999C1070.97 61.9199 1074.43 57.62 1074.2 53.72C1073.98 50.11 1074.15 46.4701 1074.15 42.8501H1074.14ZM1074.72 410.77C1074.72 410.77 1074.65 410.77 1074.62 410.77C1074.62 407.52 1074.51 404.27 1074.65 401.03C1074.78 398.06 1074.4 395.43 1071.98 393.34C1071.08 392.56 1070.33 391.81 1069.07 391.79C1065.47 391.72 1061.88 391.59 1058.28 391.56C1056.21 391.55 1054.13 391.69 1052.06 391.8C1050.44 391.89 1049.36 392.69 1048.38 394.06C1047.04 395.93 1046.9 397.96 1046.9 400.05C1046.9 406.93 1046.96 413.81 1047.05 420.69C1047.06 421.73 1047.27 422.77 1047.47 423.8C1048.09 426.97 1050.27 429.25 1053.36 429.37C1058.32 429.56 1063.3 429.62 1068.26 429.38C1072.41 429.18 1074.63 426.62 1074.71 422.52C1074.78 418.6 1074.73 414.69 1074.73 410.77H1074.72ZM578.73 408.95C578.73 408.95 578.66 408.95 578.63 408.95C578.63 405.43 578.69 401.9 578.61 398.38C578.53 394.78 575.76 391.44 572.12 391.24C567.1 390.96 562.03 390.93 557.02 391.3C552.57 391.63 550.42 394.61 550.72 399.03C550.78 399.98 550.96 400.92 550.96 401.86C550.96 405.38 550.92 408.9 550.87 412.41C550.84 414.78 550.72 417.14 550.71 419.51C550.69 424.25 552.04 428.92 558.8 428.88C562.71 428.86 566.62 428.79 570.52 428.78C574.86 428.78 577.43 426.84 578.26 422.64C578.61 420.88 578.67 419.04 578.71 417.24C578.78 414.48 578.73 411.71 578.73 408.94V408.95ZM639.87 42.1299C639.87 42.1299 639.83 42.1299 639.81 42.1299C639.81 38.1299 639.9 34.1399 639.78 30.1499C639.68 26.8699 636.58 23.0799 632.84 23.4099C628.59 23.7899 624.27 23.5999 619.99 23.3999C616.5 23.2399 614.08 24.49 612.82 27.75C612.42 28.79 612.12 29.93 612.04 31.04C611.9 33.04 611.94 35.05 611.94 37.05C611.94 42.68 611.86 48.3199 611.99 53.9499C612.09 58.1199 615.58 61.43 619.76 61.51C623.77 61.58 627.79 61.6001 631.8 61.5701C636.62 61.5401 639.84 58.3401 639.86 53.6001C639.88 49.7801 639.86 45.9599 639.86 42.1499L639.87 42.1299ZM239.9 41.48C239.9 41.48 239.95 41.48 239.97 41.48C239.97 45.49 239.97 49.5 239.97 53.5C239.97 55.99 240.92 58.0499 243.14 59.1899C244.71 59.9899 246.47 60.7301 248.2 60.8501C251.81 61.1001 255.45 60.9799 259.08 60.9099C260.11 60.8899 261.17 60.6401 262.17 60.3501C265.54 59.3801 267.5 56.9399 267.51 53.4199C267.52 45.5899 267.52 37.7599 267.31 29.9299C267.18 25.3199 264.42 22.93 260.75 22.72C256.18 22.46 251.57 22.3999 247 22.6299C242.85 22.8499 239.75 25.4801 239.89 30.5901C239.99 34.2201 239.91 37.85 239.91 41.48H239.9ZM391.81 42.04C391.75 42.04 391.7 42.04 391.64 42.04C391.64 38.13 391.76 34.21 391.61 30.3C391.44 25.85 389.37 23.4799 385.04 23.2099C380.19 22.8999 375.31 22.9501 370.45 23.0901C367.84 23.1701 365.87 24.47 364.64 27.04C363.79 28.81 363.85 30.52 363.86 32.3C363.91 39.15 363.97 46.0001 364.08 52.8501C364.14 56.6201 365.6 59.5301 369.5 60.6201C370.59 60.9201 371.75 61.0501 372.88 61.0701C376.32 61.1201 379.77 60.8699 383.19 61.1399C388.03 61.5199 392.16 57.1501 391.85 52.3401C391.63 48.9201 391.81 45.47 391.81 42.04ZM364.63 409.55C364.63 409.55 364.67 409.55 364.68 409.55C364.68 413.46 364.61 417.38 364.7 421.29C364.8 425.6 367.75 428.6 372.09 428.74C376.29 428.87 380.49 428.86 384.69 428.8C388.87 428.74 392.03 425.86 392.11 421.71C392.26 413.7 392.18 405.69 392.16 397.68C392.16 393.8 389.3 390.81 385.4 390.59C380.93 390.34 376.42 390.25 371.96 390.59C367.35 390.94 364.34 394 364.59 398.68C364.78 402.29 364.63 405.93 364.63 409.55ZM984.62 410.35C984.62 410.35 984.54 410.35 984.5 410.35C984.69 414.45 984.81 418.55 985.08 422.65C985.32 426.2 988.31 429.22 991.96 429.36C996.73 429.54 1001.51 429.51 1006.28 429.37C1009.45 429.28 1011.62 427.31 1012.2 424.21C1012.51 422.54 1012.58 420.81 1012.58 419.11C1012.58 415.67 1012.44 412.24 1012.4 408.8C1012.36 405.36 1012.44 401.92 1012.32 398.49C1012.19 394.91 1009.81 391.97 1006.26 391.78C1000.86 391.49 995.43 391.73 990.01 391.82C989.31 391.83 988.46 392.13 987.96 392.61C985.94 394.55 984.39 396.67 984.57 399.79C984.78 403.3 984.62 406.84 984.62 410.37V410.35ZM329.67 41.9599C329.67 41.9599 329.62 41.9599 329.6 41.9599C329.6 40.0499 329.59 38.14 329.6 36.23C329.61 34.22 329.73 32.2199 329.67 30.2099C329.54 26.1299 327.66 23.56 323.66 23.24C318.35 22.81 312.99 22.81 307.66 23.05C304.4 23.19 302.34 25.6899 302.07 28.9399C301.91 30.8299 301.93 32.7399 301.95 34.6399C301.99 41.1299 302.08 47.6201 302.1 54.1101C302.1 56.0701 302.81 57.54 304.35 58.79C306.31 60.38 308.52 61.0501 310.97 61.0701C314.22 61.1001 317.47 61.0101 320.72 61.1001C325.43 61.2401 329.99 58.17 329.69 51.99C329.53 48.65 329.66 45.2999 329.66 41.9499L329.67 41.9599ZM674 42.3501C674 42.3501 674.03 42.3501 674.04 42.3501C674.04 45.7901 674.04 49.2299 674.04 52.6599C674.04 53.0399 674.04 53.42 674.06 53.81C674.25 57.99 677.31 61.36 681.43 61.53C685.82 61.71 690.22 61.63 694.62 61.53C696.93 61.48 700.54 58.8099 701.06 56.9199C701.71 54.5599 702.33 52.2199 701.97 49.6699C701.69 47.7099 701.99 45.6699 701.97 43.6699C701.94 39.2999 702.23 34.88 701.72 30.56C701.18 25.92 698.95 23.7601 695.19 23.5701C690.42 23.3201 685.63 23.4401 680.86 23.5701C679.07 23.6201 677.31 24.07 676.13 25.76C674.68 27.84 673.8 29.9901 673.95 32.6201C674.14 35.8501 673.99 39.1101 673.99 42.3501H674ZM950.53 410.42C950.53 410.42 950.43 410.42 950.38 410.42C950.38 406.41 950.41 402.41 950.38 398.4C950.34 394.78 947.49 391.57 943.86 391.41C939.38 391.21 934.87 391.13 930.4 391.41C928.68 391.52 926.61 391.27 925.16 393.06C923.59 394.98 922.53 397.1 922.54 399.51C922.56 404.26 922.88 409.01 923.03 413.76C923.08 415.28 923.19 416.85 922.88 418.31C922.4 420.54 922.55 422.87 923.5 424.64C924.73 426.94 926.37 429.38 929.7 429.34C934.09 429.29 938.5 429.17 942.87 429.44C946.86 429.69 950.84 426.2 950.58 421.84C950.36 418.04 950.53 414.22 950.53 410.41V410.42ZM825.73 42.48C825.73 38.57 825.75 34.66 825.73 30.76C825.7 26.62 822.48 23.49 818.33 23.5C814.42 23.5 810.5 23.52 806.59 23.52C801.26 23.52 797.85 26.9401 797.85 32.3601C797.85 33.9801 797.91 35.6 797.91 37.22C797.91 42.75 797.86 48.27 797.93 53.8C797.99 58.41 801.27 61.5901 805.84 61.6101C810.03 61.6301 814.22 61.6101 818.42 61.5701C822.56 61.5301 825.63 58.6 825.71 54.47C825.8 50.47 825.73 46.47 825.73 42.47V42.48ZM640.48 409.7C640.43 409.7 640.38 409.7 640.33 409.7C640.33 405.79 640.47 401.88 640.29 397.98C640.1 393.78 637.81 391.4 633.63 391.24C628.77 391.05 623.89 391.14 619.02 391.28C616.75 391.35 614.92 392.21 613.8 394.57C612.9 396.46 612.49 398.29 612.58 400.32C612.71 403.27 612.84 406.22 612.89 409.18C612.96 413.56 612.8 417.96 613.05 422.33C613.28 426.33 616.35 429.03 620.42 429.11C624.53 429.19 628.63 429.09 632.74 429.14C636.98 429.2 640.41 426.11 640.47 421.44C640.52 417.53 640.48 413.62 640.48 409.7ZM763.7 42.81C763.7 42.81 763.76 42.81 763.79 42.81C763.79 38.71 763.93 34.6 763.75 30.51C763.56 26.24 760.52 23.53 756.26 23.5C752.24 23.47 748.21 23.7299 744.22 23.4299C739.37 23.0599 736.1 26.91 736.11 31.28C736.13 38.82 735.97 46.3599 735.96 53.8899C735.96 58.1099 739.5 61.5501 743.81 61.5901C747.83 61.6301 751.84 61.6001 755.86 61.6101C760.36 61.6201 763.62 58.5 763.7 53.98C763.76 50.26 763.71 46.53 763.71 42.81H763.7ZM764.2 410.15C764.2 410.15 764.1 410.15 764.05 410.15C764.05 406.14 764.01 402.13 764.07 398.12C764.1 396.05 763.32 394.37 761.86 393.04C760.23 391.56 758.15 391.22 756.01 391.23C752.19 391.23 748.36 391.24 744.54 391.25C739.24 391.26 736.48 394.06 736.49 399.42C736.49 404.39 736.48 409.35 736.5 414.32C736.51 416.8 736.5 419.29 736.68 421.77C736.97 425.99 740.22 429.31 744.51 429.26C748.81 429.21 753.11 429.27 757.4 429.15C758.49 429.12 759.65 428.75 760.62 428.24C763.25 426.86 764.25 424.53 764.2 421.61C764.14 417.79 764.18 413.97 764.18 410.15H764.2ZM426.69 409.18C426.69 413.19 426.76 417.19 426.67 421.2C426.56 426 430.92 428.92 434.48 428.83C438.39 428.73 442.31 428.72 446.22 428.88C450.78 429.06 454.77 425.14 454.4 420.31C454.24 418.13 454.29 415.92 454.28 413.73C454.27 408.68 454.38 403.62 454.26 398.57C454.16 394.46 452.51 391.66 448.45 391.02C446.21 390.67 443.91 390.57 441.64 390.62C438.41 390.69 435.15 390.77 431.97 391.29C428.52 391.85 426.77 394.21 426.71 397.74C426.64 401.55 426.69 405.37 426.7 409.18H426.69ZM826.4 410.35C826.4 410.35 826.37 410.35 826.36 410.35C826.36 406.44 826.64 402.5 826.29 398.61C825.84 393.68 823.88 391.8 819.53 391.28C818.77 391.19 818 391.21 817.24 391.21C813.99 391.21 810.74 391.15 807.49 391.23C806.18 391.26 804.85 391.49 803.56 391.79C801.2 392.34 798.75 395.24 798.73 397.66C798.67 405.69 798.43 413.73 798.81 421.74C799 425.8 801.81 429.4 806.47 429.32C810.68 429.25 814.89 429.2 819.09 429.36C822.88 429.5 826.56 425.88 826.43 421.83C826.31 418.01 826.4 414.19 826.4 410.37V410.35ZM888.68 413.06C888.57 413.06 888.47 413.06 888.36 413.06C888.36 408.58 888.29 404.1 888.38 399.63C888.48 394.68 885.62 391.62 880.95 391.31C876.67 391.03 872.36 391.16 868.07 391.32C865.47 391.42 862.94 392.15 861.83 394.87C861.21 396.41 860.68 398.13 860.69 399.77C860.69 407.1 860.89 414.43 861.06 421.77C861.16 426.21 864.07 429.19 868.56 429.33C872.57 429.46 876.58 429.29 880.58 429.42C885.69 429.58 888.99 425.07 888.71 421.06C888.52 418.41 888.67 415.73 888.67 413.06H888.68ZM702.37 409.99H702.22C702.22 405.99 702.32 401.98 702.19 397.98C702.07 394.32 699.62 391.53 696.04 391.38C690.81 391.16 685.55 391.3 680.31 391.39C678.35 391.42 676.78 392.55 676 394.26C675.3 395.79 674.76 397.53 674.72 399.2C674.61 403.19 674.87 407.19 674.92 411.19C674.95 413.57 674.86 415.95 674.83 418.33C674.82 419.28 674.72 420.24 674.79 421.18C675.16 426.03 678.11 429.27 682.98 429.1C687.27 428.95 691.56 429.02 695.85 428.98C696.41 428.98 697.04 429.01 697.5 428.76C700.62 427.07 702.65 424.77 702.42 420.86C702.21 417.25 702.37 413.62 702.37 410V409.99ZM910.84 445.6C913.46 445.6 915.91 445.64 918.36 445.59C919.88 445.56 921.03 445.79 921.86 447.37C922.7 448.96 923.93 448.92 924.52 447.34C925.09 445.82 925.96 445.27 927.59 445.51V442.44C925.76 442.65 925.1 441.66 925.05 440.09C924.99 437.91 925.01 435.72 924.88 433.54C924.83 432.74 924.64 431.77 924.14 431.22C923.4 430.41 919.58 430.95 918.84 431.8C916.67 434.3 914.42 436.75 912.39 439.36C911.04 441.1 909.29 442.89 910.84 445.6ZM601.38 445.04C613.62 443.35 625.37 441.73 637.13 440.11C637.16 439.93 637.18 439.74 637.21 439.56C636.25 439.29 635.31 438.88 634.33 438.76C627.82 437.93 621.29 437.36 614.86 435.96C612.27 435.4 609.62 435.11 606.99 434.79C605.22 434.58 603.44 434.54 601.39 434.4V445.06L601.38 445.04ZM414.91 15.22C416.46 15.87 417.56 16.56 418.74 16.78C421.84 17.34 424.98 17.7699 427.68 15.4399C429.41 13.9399 429.68 12.28 428.21 10.52C427.28 9.41001 427.02 8.43994 427.89 7.19994C428.18 6.77994 428.37 6.1201 428.29 5.6201C427.93 3.4001 426.06 1.89997 423.79 1.47997C420.73 0.909967 418.26 2.16009 415.59 3.61009C415.84 4.47009 416.06 5.23989 416.39 6.39989C417.53 5.79989 418.42 5.36987 419.28 4.87987C421.29 3.74987 423.08 3.71999 424.59 4.99999C425.03 5.36999 425.42 6.06008 425.42 6.60008C425.42 6.93008 424.67 7.43004 424.18 7.55004C423.09 7.83004 421.96 7.92007 420.83 8.09008C420.59 9.45008 420.96 10.0399 422.22 10.1799C423.13 10.2799 424.11 10.4399 424.87 10.9099C425.37 11.2199 425.75 12.1 425.74 12.72C425.74 13.19 425.13 13.8601 424.64 14.0901C423.15 14.7901 421.57 15.0201 419.97 14.3301C418.76 13.8101 417.54 13.33 416.11 12.74C415.74 13.51 415.4 14.23 414.92 15.24L414.91 15.22ZM134.3 439.16L134.28 438.68C123.25 437.05 112.22 435.41 101.18 433.81C100.36 433.69 99.5201 433.79 98.3101 433.79C98.2801 436.88 98.2401 439.81 98.2401 442.73C98.2401 443.66 98.85 444.11 99.72 444.12C100.58 444.12 101.44 444.09 102.29 443.98C105.31 443.61 108.33 443.2 111.34 442.81C112 442.72 112.72 442.76 113.3 442.5C115.72 441.41 118.32 441.49 120.87 441.21C123.15 440.96 125.43 440.74 127.69 440.39C129.9 440.05 132.1 439.58 134.3 439.17V439.16ZM911.92 14.6999H920.62C920.81 15.7299 920.96 16.53 921.14 17.51C922.1 17.43 922.91 17.36 923.75 17.29C924.22 16.04 924.51 14.7699 926.1 14.6599C926.38 14.6399 926.84 13.9699 926.81 13.6299C926.78 13.2999 926.28 12.9499 925.92 12.7099C925.31 12.3099 924.64 11.9899 924.03 11.6499V2.76C921.61 2.24 919.92 2.51995 918.49 4.70995C917.11 6.81995 915.19 8.65004 913.24 10.3C911.86 11.47 911.51 12.6599 911.91 14.6999H911.92ZM168.72 444.9C168.8 443.92 168.99 443.41 168.85 443.04C167.76 440.22 166.63 437.41 165.43 434.64C165.25 434.22 164.63 433.82 164.15 433.71C162.57 433.35 161.55 434.04 160.9 435.7C160 437.98 159.13 440.27 158.13 442.51C157.84 443.15 157.35 443.74 158.17 444.15C158.47 444.3 159.2 443.91 159.53 443.57C161.39 441.7 164.51 441.59 166.47 443.34C167.05 443.86 167.75 444.24 168.73 444.91L168.72 444.9ZM671.78 444.81C671.96 444.59 672.13 444.36 672.31 444.14C672.07 443.27 671.88 442.38 671.57 441.54C670.94 439.78 670.02 438.1 669.65 436.29C669.36 434.87 668.92 434.08 667.43 433.92C665.81 433.75 664.94 434.59 664.44 435.95C663.59 438.26 662.76 440.59 661.98 442.93C661.83 443.39 661.96 443.95 661.96 444.98C665.32 441.53 668.55 442.27 671.79 444.81H671.78ZM658.52 441.99C657.24 440.68 657 439.37 657.41 437.71C657.91 435.67 657.33 435.08 655.38 434.28C653.42 433.47 651.61 434.04 649.82 434.66C648.5 435.12 648.54 435.66 649.57 436.76C650.98 436.4 652.21 435.96 653.48 435.82C654.3 435.73 655.3 435.94 655.43 437.07C655.57 438.25 654.74 438.46 653.79 438.53C652.72 438.6 651.83 438.86 652.47 440.36C653.17 440.5 653.93 440.59 654.65 440.8C655.87 441.15 656.14 441.82 655.57 442.93C654.9 444.25 653.73 444.62 652.2 443.72C651.02 443.03 649.89 442.62 648.17 442.83C649.08 445.25 651.18 444.67 652.68 445.11C655.41 445.91 656.94 444.22 658.52 442.01V441.99ZM149.28 442.33C149.25 442.11 149.22 441.88 149.2 441.66C149.84 441.3 150.53 441 151.1 440.55C152.05 439.81 153.06 439.07 153.8 438.14C154.63 437.08 154.33 435.63 153.37 434.81C151.42 433.12 147.77 433.08 145.96 434.83C145.67 435.11 145.65 435.83 145.75 436.3C145.79 436.47 146.58 436.64 146.95 436.55C147.94 436.29 148.88 435.77 149.88 435.58C150.31 435.5 151.13 435.86 151.27 436.22C151.48 436.75 151.37 437.51 151.15 438.07C151.01 438.45 150.45 438.67 150.06 438.94C148.75 439.87 147.43 440.79 146.13 441.72C145.3 442.32 144.8 443.05 145.31 444.09C147.35 444.23 149.31 444.37 151.27 444.49C151.93 444.53 152.63 444.66 153.26 444.51C153.72 444.4 154.07 443.88 154.74 443.33C152.56 442.93 150.92 442.64 149.28 442.34V442.33Z" fill="black"/>
</svg>
