<?xml version="1.0" encoding="UTF-8"?>
<svg id="Layer_1" xmlns="http://www.w3.org/2000/svg" viewBox="0 0 149.13 13.14">
  <defs>
    <style>
      .cls-1 {
        fill: #fec776;
      }
    </style>
  </defs>
  <path class="cls-1" d="M132.03,2.76c-1.85.44-3.72.82-5.55,1.34-2.7.77-5.45,1.23-8.24,1.49-.32.03-.63.3-.95.32-1.45.09-2.91.18-4.36.17-2.31-.02-4.61-.16-6.92-.18-3.16-.03-6.31-.02-9.47.02-1.49.02-2.98.23-4.47.24-3.46.03-6.91-.02-10.37-.03-1.73,0-3.46.02-5.19,0-1.71,0-3.42-.05-5.13-.06-.54,0-1.09.06-1.62.12-.77.09-1.54.22-2.31.3-.72.08-1.45.13-2.17.16-1.84.08-3.68.14-5.51.22-2.33.1-4.65.25-6.98.33-1.64.05-3.29,0-4.93.04-1.35.04-2.71.14-4.06.24-.79.06-1.57.22-2.36.29-1.56.13-3.13.26-4.69.35-1.73.1-3.46.17-5.2.22-2.11.06-4.22.01-6.32.17-1.92.14-3.82.51-5.74.74-.63.07-1.31-.11-1.9.05-.73.19-1.39.63-2.09.95-1.05.48-1.53,1.51-2.27,2.29-.25.26-.76.29-1.16.38-.42.1-.86.13-1.29.21-.79.14-1.82-.73-1.9-1.62-.03-.28.06-.6-.04-.84-.09-.21-.4-.49-.58-.47-1.85.16-3.71.33-5.55.61-.33.05-.64.62-.85,1.01-.15.28-.14.65-.2.97-.75-.03-1.48-.72-1.49-1.43C.1,7.92.05,4.49,0,1.06,0,.76.1.45.18,0c1.13.12,2.2.31,3.27.34,2.04.05,4.08-.03,6.12.01,1.93.03,3.86.13,5.79.23,2.56.13,5.12.29,7.68.42,1.9.09,3.79.13,5.69.22,3.29.16,6.58.38,9.87.5,2.26.08,4.52.04,6.77.02.62,0,1.25-.13,2.02-.21-2.62,1.37-5.29,1.71-8.02,1.66-1.42-.02-2.84-.24-4.26-.29-1.38-.05-2.77.03-4.15,0-1.6-.03-3.19-.09-4.79-.19-.93-.05-1.85-.23-2.78-.29-1.97-.14-3.95-.23-5.92-.35-1.96-.12-3.92-.31-5.88-.35-1.79-.04-3.58.09-5.37.12-1.37.02-2.74,0-4.19,0-.02.37-.04.83-.07,1.3-.07,0-.13,0-.2,0-.01-.27-.03-.55-.04-.82-.07,0-.13,0-.2,0v7.24c2.43-.29,4.81-.56,7.18-.88.24-.03.53-.26.66-.48.91-1.56,2.22-2.02,3.95-1.5-.02.43.13,1.04-.12,1.35-.43.54-1.05.99-1.67,1.32-.7.36-1.17,1.36-.8,2.05.19.35.97.28,1.33-.21.41-.57.74-1.21,1.06-1.84.2-.4.33-.83.43-1.11,1.27-.08,2.42-.01,3.51-.24,5.71-1.18,11.48-1.34,17.28-1.2,1.83.04,3.66-.26,5.5-.38,1.8-.12,3.6-.22,5.41-.32,1.76-.09,3.53-.17,5.29-.25,3.32-.15,6.63-.28,9.95-.45,2.62-.13,5.24-.37,7.86-.46,3.66-.13,7.32-.18,10.98-.24,4-.06,8.01-.11,12.01-.1,4.53,0,9.06.07,13.58.1,3.04.02,6.08.1,9.1-.04,1.94-.09,3.87-.51,5.8-.83,3.23-.54,6.45-1.16,9.68-1.65.8-.12,1.65.08,2.48.14.01.14.02.28.03.42Z"/>
  <path class="cls-1" d="M143.88.67c1.05.19,2.1.37,3.14.58.79.16,1.6.31,2.11,1.15-3.95-.9-7.79-.17-11.65.2-.73.07-1.52.2-2.21-.4-.24-.21-.75-.11-1.14-.15.01-.08.02-.16.03-.24.61-.03,1.23-.04,1.84-.09.85-.07,1.75,0,2.53-.28,1.55-.54,3.12-.71,4.73-.73.2-.02.4-.03.6-.05Z"/>
  <path class="cls-1" d="M143.88.67c-.2.02-.4.03-.6.05-.9-.04-1.8-.08-2.7-.1-.15,0-.31.04-.46.07l-.02-.31c1.47-.03,2.94-.07,4.42-.1,0,.08.01.17.02.25-.22.05-.44.1-.66.15Z"/>
</svg>