<?xml version="1.0" encoding="UTF-8"?>
<svg id="Layer_2" data-name="Layer 2" xmlns="http://www.w3.org/2000/svg" viewBox="0 0 48.21 58.26">
  <defs>
    <style>
      .cls-1 {
        fill: #a08e80;
      }

      .cls-2 {
        opacity: 1;
      }
    </style>
  </defs>
  <g id="TEXT">
    <g class="cls-2">
      <g>
        <path class="cls-1" d="M22.48,43.09c-.22-.17-.4-.37-.62-.47-.71-.31-1.22-.87-1.75-1.39-.14-.14-.21-.4-.2-.61.03-.6-.02-1.17-.36-1.68-.7-1.03-.04-2.56.83-3.12.59-.38,1.22-.6,1.89-.71.54-.09.98.19,1.4.47.45.3.9.64,1.48.59.28-.02.56-.15.84-.21.31-.07.62-.15.93-.18.57-.06,1.14-.12,1.71-.12.67,0,1.33-.06,1.97-.28.67-.23.98-.1,1.4.48.2.28.41.56.62.84.25.33.62.44,1,.55.45.12.89.25,1.32.43.33.14.64.16.99.12.29-.03.61-.04.89.02.67.16,1.34.34,2,.55.83.27,1.55.73,2.07,1.44.19.25.29.57.4.87.11.31.17.64.27.95.16.45.11.87-.17,1.25-.49.65-.73,1.39-.74,2.18,0,.31.19.62.28.93.11.39.23.78.3,1.18.06.36.06.74.07,1.1,0,.19-.04.39-.07.58-.11.63-.26,1.25-.32,1.88-.05.45-.23.79-.51,1.12-.42.51-.82,1.04-1.21,1.58-.34.47-.73.89-1.2,1.23-.38.27-.65.6-.81,1.04-.09.24-.23.47-.39.68-.31.4-.66.77-.97,1.17-.37.46-.84.69-1.44.71-.71.03-1.4.04-2.01-.4-.11-.08-.25-.11-.38-.14-.51-.1-.87-.43-1.17-.82,0,0,0-.02-.01-.03-.61-.65-.67-.71-1.3-.1-.41.39-.89.58-1.42.7-.71.16-1.44.28-2.13.06-.45-.14-.86-.44-1.24-.74-1.19-.92-2.5-1.61-3.93-2.09-.67-.23-1.07-.75-1.4-1.34-.19-.33-.31-.66-.32-1.05-.01-.32-.43-.54-.74-.41-.53.23-1.02.14-1.46-.19-.61-.45-.52-.99.03-1.44.41-.34.8-.72,1.17-1.11.61-.64,1.31-1.11,2.17-1.36.48-.14.55-.35.36-.81-.25-.6-.33-1.17.16-1.71.11-.13.18-.38.14-.54-.17-.69.14-1.06.75-1.32.26-.11.52-.21.85-.34Z"/>
        <path class="cls-1" d="M30.89,3.96c.13.96.27,1.93.38,2.89.03.31.01.65-.08.95-.43,1.41-.93,2.79-1.34,4.21-.18.62-.62.91-1.07,1.24-.06.05-.12.09-.19.14-.45.32-.78.33-1.19-.02-.77-.66-1.35-1.44-1.25-2.54.05-.59-.3-1.03-.54-1.51-.1-.19-.17-.42-.17-.63.02-.71,0-1.41-.28-2.09-.24-.56-.13-1.14,0-1.72.15-.65.27-1.3.39-1.96.08-.46.09-.93.22-1.37.23-.73.66-1.3,1.47-1.5,1.08-.26,2.5.49,2.8,1.4.09.28.28.54.45.78.43.58.49.76.48,1.72-.03,0-.06,0-.09.01Z"/>
        <path class="cls-1" d="M9.54,41.89c-.1.9.22,1.72.48,2.54.17.52,0,.91-.5,1.2-.55.32-1.07.27-1.62.05-.67-.26-1.34-.51-2-.79-.26-.11-.52-.29-.72-.49-.45-.44-.86-.92-1.3-1.37-.19-.2-.4-.41-.64-.53-.77-.37-1.35-.95-1.88-1.6-.23-.29-.47-.58-.72-.85-.51-.53-.6-1.21-.64-1.89-.01-.22.1-.5.24-.67.37-.46.82-.84,1.43-.94.12-.02.26-.02.38,0,.76.16,1.54.29,2.29.52.84.26,1.68.57,2.25,1.31.12.16.2.35.28.54.15.37.4.64.77.81.68.31,1.24.78,1.65,1.4.14.22.18.5.26.76Z"/>
        <path class="cls-1" d="M28.57,22.28c.54,0,.94.2,1.18.73.07.15.36.2.53.31.31.2.64.38.92.61.22.18.3.44.14.74-.11.19-.1.36.04.57.31.47.64.95.83,1.47.13.37.05.82.07,1.23.01.25-.01.5.05.74.19.66-.08,1.25-.24,1.85-.12.43-.32.83-.45,1.26-.1.34-.16.7-.22,1.06-.05.3-.24.49-.5.59-.42.17-.86.31-1.29.46-.44.14-.88-.06-1.04-.5-.25-.69-.52-1.38-.72-2.09-.19-.65-.29-1.31-.46-1.97-.09-.36-.25-.71-.35-1.07-.14-.49-.15-.99-.07-1.5.08-.59.11-1.19.21-1.78.05-.3.19-.59.34-.86.17-.3.25-.6.21-.95-.06-.54.31-.92.85-.9Z"/>
        <path class="cls-1" d="M8.95,7.41c.89,0,1.4.34,1.85.87.54.63.94,1.33,1.3,2.07.19.4.51.74.68,1.15.23.54.37,1.12.55,1.68.06.18.15.37.16.55.04.46-.12.87-.39,1.22-.31.42-.7.76-.83,1.32-.09.41-.6.6-1.09.51-.07-.01-.13-.03-.2-.05-.49-.13-.88-.04-1.23.39-.31.39-.58.38-.89-.01-.45-.57-.86-1.18-1.25-1.79-.22-.34-.13-.73-.07-1.1.09-.46,0-.9-.12-1.34-.16-.57-.02-1.14.05-1.7.05-.37.13-.74.23-1.1.05-.18.02-.3-.1-.42-.67-.64-.48-1.01.07-1.74.37-.49.91-.51,1.27-.5Z"/>
        <path class="cls-1" d="M48.21,15.89c-.12.56-.26,1.13-.37,1.7-.05.24-.04.49-.08.72-.24,1.22-.79,2.29-1.5,3.3-.45.65-1.43.9-2.18.45-.71-.42-1.3-.93-1.75-1.6-.15-.22-.2-.51-.24-.78-.05-.33-.07-.66-.07-.99,0-.23.03-.46.09-.69.16-.67.32-1.35.51-2.01.19-.65.46-1.27.98-1.73.48-.43,1-.83,1.54-1.17.4-.25.86-.26,1.29.04.26.18.54.32.8.49.69.47.91,1.18.94,1.97,0,.1,0,.2,0,.29.02,0,.03,0,.05.01Z"/>
        <path class="cls-1" d="M16,25.1c.76.03,1.08.35,1.35,1.07.2.54.48,1.08.85,1.52.56.67,1.02,1.4,1.44,2.15.3.54.53,1.12.74,1.7.19.51-.04,1.01-.1,1.52-.07.59-.35,1.04-.82,1.4-.37.28-.75.24-1.25-.06-.26-.16-.56-.33-.85-.34-.5-.02-.76-.3-1-.66-.6-.91-1.02-1.91-1.37-2.94-.04-.12-.12-.22-.17-.34-.13-.32-.26-.64-.39-.97-.09-.23-.16-.48-.27-.7-.22-.42-.23-.83-.04-1.25.2-.44.34-.91.57-1.34.26-.51.68-.82,1.3-.76Z"/>
        <path class="cls-1" d="M30.91,15.53c-.07.16-.18.44-.33.71-.37.69-.65,1.41-.67,2.21,0,.14-.07.29-.06.43.02.19.02.43.13.56.38.47.65.99.85,1.55.11.3.03.62-.22.78-.22.15-.46.1-.71-.14-.15-.14-.29-.29-.44-.42-.18-.16-.73-.1-.96.08-.18.14-.38.28-.59.38-.36.18-.69,0-.99-.17-.3-.17-.58-.38-.84-.61-.22-.2-.13-.42.05-.61.09-.09.18-.18.27-.27.37-.35.4-.49.15-.93-.2-.35-.27-.7-.2-1.11.08-.48-.02-.93-.27-1.37-.32-.54-.24-.84.37-1.17.31-.17.61-.38.87-.62.32-.29.63-.49,1.11-.44.46.05.93-.04,1.39-.05.53,0,1.07.54,1.07,1.21Z"/>
        <path class="cls-1" d="M13.67,25.17c-.22-.14-.43-.23-.6-.38-.41-.35-.79-.73-.86-1.3-.03-.25-.02-.53.05-.78.11-.39-.11-.63-.31-.88-.24-.29-.52-.56-.73-.87-.45-.67-.45-1.43-.3-2.19.08-.42.38-.57.8-.43.36.12.69.09.97-.18.01-.01.03-.03.04-.04.53-.42.96-.36,1.3.22.35.61.65,1.25.98,1.88.18.33.36.67.56.99.54.88.28,1.13-.34,1.62-.28.22-.45.45-.44.81.02.49-.16.9-.53,1.21-.16.13-.36.2-.59.31Z"/>
        <path class="cls-1" d="M44.73,24.44c.02.14.04.33.06.53.08.68-.16,1.25-.55,1.8-.18.25-.27.57-.39.87-.27.66-.76,1.39-1.65,1.48-.38.04-.65-.21-.68-.6-.02-.2-.12-.41-.23-.58-.22-.34-.27-.68-.05-1.04.04-.07.06-.16.1-.24.24-.42.19-.81-.07-1.2-.19-.28-.18-.57.03-.86.17-.25.28-.55.45-.79.14-.2.31-.43.52-.52.43-.17.9-.29,1.36-.37.17-.03.42.07.55.2.34.35.63.75.56,1.34Z"/>
        <path class="cls-1" d="M38.16,34.63c.09-.42.11-.81.26-1.15.12-.27.36-.54.61-.67.84-.43,1.19-1.14,1.35-2.01.07-.39.32-.68.73-.79.37-.1.7-.06,1,.23.37.36.48.8.58,1.28.14.69-.32,1.09-.66,1.56-.15.21-.28.47-.34.72-.09.44-.27.8-.58,1.12-.32.33-.6.7-.91,1.03-.31.33-.67.6-1.15.49-.16-.04-.38-.16-.43-.3-.19-.5-.31-1.03-.45-1.52Z"/>
        <path class="cls-1" d="M12.14,45.01c.34-.05.67.1.99.36.39.33.85.52,1.37.5.3-.01.54.13.68.38.35.59.69,1.19,1.02,1.8.28.51.06,1.33-.42,1.65-.34.22-.71.17-1.04.02-.35-.16-.65-.42-.98-.62-.41-.26-.85-.49-1.23-.78-.31-.23-.55-.54-.82-.82-.05-.06-.09-.13-.14-.18-.34-.31-.45-.71-.48-1.15,0-.1-.02-.19-.04-.29-.09-.46.22-.85.7-.86.11,0,.22,0,.4,0Z"/>
      </g>
    </g>
  </g>
</svg>