<?xml version="1.0" encoding="UTF-8"?>
<svg id="Layer_2" data-name="Layer 2" xmlns="http://www.w3.org/2000/svg" viewBox="0 0 17.62 36.07">
  <defs>
    <style>
      .cls-1 {
        fill: #a08e80;
      }
    </style>
  </defs>
  <g id="TEXT">
    <g>
      <path class="cls-1" d="M17.09,29.18h-6.04V0h5.39c-.18,1.13.5,2.25-.32,3.47-.39.58-.27,1.57-.22,2.36.12,1.65.36,3.29.51,4.94.04.4-.18.82-.13,1.21.09.73.32,1.44.44,2.16.11.69.18,1.39.23,2.08.13,1.7.26,3.4.37,5.1.11,1.72.28,3.43.28,5.15,0,.88-.34,1.77-.53,2.7Z"/>
      <path class="cls-1" d="M7.8,22.03c-.58.37-1.07.69-1.71,1.1,1.81,1.29,1.46,3.19,1.68,4.88.07.55-.39,1.17-.62,1.75-.49,1.24-1.01,2.47-1.49,3.72-.12.32-.19.68-.22,1.02-.15,1.62-.14,1.6-1.82,1.55-1.28-.04-2.57,0-3.63,0,.52-1.58,1.14-3.32,1.64-5.09.19-.65.08-1.38.13-2.07.07-.92.18-1.85.25-2.77.04-.42.02-.84.06-1.25.08-.86.23-1.72.27-2.59.03-.6-.06-1.22-.15-1.82-.2-1.45-.66-2.9-.6-4.33.08-1.76-.97-3.52.04-5.26.09-.16.01-.42.01-.72h7.33c0,1.3-.06,2.63.02,3.95.08,1.35-.93,2.14-1.5,3.14-.97,1.69-.97,3.22.28,4.8Z"/>
      <path class="cls-1" d="M9.63,7.83c-.72.04-1.33.04-1.92.12-.61.08-.88-.3-.92-.75-.06-.77-.55-1.49.03-2.36.3-.44.12-1.31-.04-1.93-.13-.49-.08-.69.38-.82.64-.18,1.27-.4,1.93-.52.15-.03.51.26.52.41.04,1.93.02,3.86.02,5.85Z"/>
    </g>
  </g>
</svg>