<?xml version="1.0" encoding="UTF-8"?>
<svg id="Layer_2" data-name="Layer 2" xmlns="http://www.w3.org/2000/svg" viewBox="0 0 129.19 255.07">
  <defs>
    <style>
      .cls-1 {
        fill: #fff3df;
      }

      .cls-2 {
        opacity: .37;
      }
    </style>
  </defs>
  <g id="TEXT">
    <g class="cls-2">
      <path class="cls-1" d="M98.76,251.09c-3.94,0-8.33.21-12.68-.14-1.14-.09-2.22-1.87-3.17-3-.36-.43-.45-1.24-.4-1.86.55-6.07-2.44-11.57-2.74-17.5-.18-3.6.2-7.31-.58-10.76-.88-3.9-.39-8.07-1.58-11.64-1.63-4.92-.62-9.67-1-14.47-.22-2.72-.8-5.41-1.02-8.13-.22-2.66-.25-5.34-.24-8.01,0-1.47.29-2.93.43-4.22,7.26,0,14.33-.06,21.39.04,1.77.03,2.45,2.22,2.11,4.26-.75,4.59-1.58,9.21-1.68,13.84-.08,4,.94,8.02,1.23,12.04.17,2.37-.14,4.77-.23,7.16-.02.46-.12.96.01,1.38,1.13,3.74,1.83,7.72,3.62,11.12,1.12,2.12.82,3.84.74,5.83-.11,2.61.28,5.29-.22,7.81-.68,3.36-2.13,6.56-3.02,9.89-.55,2.03-.67,4.18-.99,6.37Z"/>
      <path class="cls-1" d="M126.63,149.48v16.68h-35.07c.54-2.57,1.01-4.75,1.47-6.93.81-3.91,1.76-7.81,2.34-11.76.18-1.25-.59-2.64-.95-3.96-.23-.85-.69-1.69-.73-2.55-.31-6.25-.66-12.51-.75-18.77-.05-3.37.42-6.75.63-10.13.06-.93.42-2.09,0-2.75-1.64-2.66-.5-5.12.07-6.99,3.73-.56,7.2-1.28,10.7-1.53,2.61-.19,5.3.04,7.9.45,1.58.25,2.5,1.42,1.67,3.27-.25.55-.35,1.29-.22,1.88,1,4.42,2.08,8.83,3.14,13.24.04.18.26.4.2.5-2.32,4.41-.43,9.64-2.99,14.12-1.9,3.33-3.02,7.12-4.3,10.77-.61,1.74.48,2.26,2.14,2.23,2.95-.05,5.94-.18,8.85.19,1.97.25,3.84,1.29,5.89,2.03Z"/>
      <path class="cls-1" d="M125.75,89.67h-35.26c.72-3.45,1.42-6.43,1.96-9.44.34-1.91.63-3.86.64-5.8.01-1.96,1.08-2.31,2.63-2.31,2.43,0,4.86,0,7.29,0l.05-1.04c-1.82-.26-3.63-.53-5.45-.78-2.81-.39-4.81-2.48-4.94-5.37-.31-6.64-.67-13.29-.76-19.94-.05-3.3.47-6.61.71-9.91.05-.64.21-1.38-.04-1.91-1.24-2.67-.92-5.27-.01-7.36,3.59-.55,6.97-1.27,10.39-1.52,2.81-.21,5.7-.06,8.47.4.68.11,1.27,2,1.54,3.16.34,1.44.28,2.97.45,4.45.06.51.45,1.02.4,1.5-.37,3.35.32,6.43,2.03,9.33.23.38.17,1.15-.06,1.56-1.36,2.4-1.06,4.95-1.04,7.55.02,1.57-.59,3.23-1.27,4.69-1.3,2.79-2.86,5.46-4.31,8.18-.13.24-.35.49-.36.74-.06,1.29-.43,2.76.06,3.82.29.61,1.98.68,3.06.79,2.38.23,4.8.19,7.16.53,2.02.29,4.01.88,5.96,1.51.37.12.68,1.07.68,1.63.05,5.13.03,10.27.03,15.53Z"/>
      <path class="cls-1" d="M2.84,229.9c.37-18.59.72-36.68,1.09-55.17,1.67-.15,3.28-.42,4.9-.4,5.29.06,10.58.32,15.86.3,1.89,0,2.76.47,3.26,2.42.67,2.65,1.94,5.14,2.78,7.76.36,1.11.6,2.43.34,3.53-1.09,4.57-2.54,9.05-3.57,13.63-.92,4.05-1.26,8.23-2.21,12.27-1.19,5.09-1.33,10.58-5.01,14.83-.32.37-.83.8-1.25.8-5.29.05-10.58.04-16.18.04Z"/>
      <path class="cls-1" d="M124.91,251.82h-16.46v-79.55h14.7c-.49,3.09,1.37,6.15-.88,9.47-1.06,1.57-.74,4.28-.59,6.44.31,4.5.98,8.98,1.39,13.47.1,1.08-.48,2.23-.35,3.29.25,1.98.88,3.92,1.2,5.89.31,1.88.49,3.78.64,5.68.37,4.63.71,9.27,1.01,13.91.31,4.68.78,9.37.76,14.05,0,2.41-.91,4.82-1.44,7.36Z"/>
      <path class="cls-1" d="M39.1,174.71h21.87c-.15,2.23-.53,4.5-.39,6.73.17,2.83.69,5.65,1.18,8.45.3,1.73.81,3.43,1.25,5.13,1.24,4.78.56,9.55-.06,14.33-.1.74-.27,1.54-.08,2.23,1.57,5.73-.47,10.72-3,15.65-.32.63-.5,1.33-.79,2.12-7.64.34-15.27.67-23.25,1.02.23-.87.21-1.69.61-2.16,3.31-3.85,2.66-8.84,3.67-13.29,1.09-4.81,1.13-9.85,1.9-14.75.65-4.08,1.78-8.07,2.53-12.14.18-1-.1-2.23-.54-3.18-1.43-3.18-3.02-6.28-4.91-10.14Z"/>
      <path class="cls-1" d="M85.16,127.76c-1.52.98-2.81,1.81-4.49,2.9,4.77,3.4,3.85,8.42,4.43,12.87.19,1.44-1.02,3.07-1.63,4.6-1.3,3.27-2.66,6.52-3.93,9.8-.33.85-.49,1.78-.57,2.69-.39,4.28-.37,4.22-4.79,4.09-3.38-.1-6.77-.02-9.57-.02,1.37-4.16,3-8.74,4.33-13.42.49-1.71.2-3.64.34-5.47.19-2.44.46-4.87.67-7.3.09-1.1.06-2.2.17-3.3.22-2.27.62-4.54.72-6.81.07-1.59-.16-3.2-.39-4.79-.54-3.82-1.75-7.65-1.57-11.42.22-4.63-2.56-9.29.11-13.87.24-.42.03-1.1.03-1.9h19.32c0,3.43-.16,6.94.05,10.42.21,3.56-2.46,5.65-3.95,8.26-2.55,4.45-2.57,8.5.74,12.66Z"/>
      <path class="cls-1" d="M31.35,23.52V1.72c5.49-.06,11.2-2.02,17.18-.06,2.46.81,5.27.67,7.92.7,5.95.09,12.02-1.22,18.18,1.86-.34,6.34-.69,12.88-1.05,19.66-5.86,0-11.75,1.2-17.61-.8-1.48-.51-3.32-.19-4.96.04-4.36.63-8.68,1.47-13.03,2.13-.64.1-1.37-.31-2.05-.49-1.25-.34-2.5-.68-4.57-1.24Z"/>
      <path class="cls-1" d="M25.15,2.87c-.7,2.24-1.5,3.78-1.62,5.38-.43,5.82-.65,11.66-.92,17.49-.09,2.02-.14,4.04-.16,6.06-.03,3.9.05,7.8-.11,11.69-.03.76-.77,1.88-1.46,2.17-5.86,2.49-12.11,2.59-18.24,2.92-.19-.33-.34-.48-.35-.64-.58-8.3-1.51-16.59-1.57-24.9-.03-4.76,1.37-9.52,2.1-14.29.12-.79.16-1.59.27-2.7,7-1.01,14.12-2.04,22.06-3.19Z"/>
      <path class="cls-1" d="M30.97,161.6c.93-1.42,1.89-2.42,2.28-3.61.43-1.34.38-2.85.47-4.28.08-1.37.06-2.75.1-4.13.02-.53.19-1.05.17-1.57-.13-2.56-.61-5.14-.35-7.66.15-1.51,1.77-2.84,2.11-4.38.62-2.86,2.65-1.45,4-1.48,6.31-.13,12.63-.06,19.11-.06,0,1.73-.08,3.2.02,4.66.28,4.13.65,8.25.96,12.38.04.52.16,1.26-.12,1.54-2.83,2.84-3.42,5.61.89,8.6h-29.62Z"/>
      <path class="cls-1" d="M87.92.15c4.59-.94,37.28,2.78,40.29,4.66-5.54,4.59-7.49,10.2-4.15,17.5-11.74-2.09-22.92-4.74-34.72-3.37-.49-6.46-.96-12.64-1.42-18.79Z"/>
      <path class="cls-1" d="M30.78,235.86c4.48,2.35,8.77,4.79,13.22,6.87,2.05.96,4.46,1.14,6.64,1.85.75.24,1.84,1,1.88,1.58.19,3.03.09,6.07.09,8.91-2.81-.97-5.55-2.1-8.39-2.83-1.91-.48-3.97-.4-5.96-.54-1.11-.08-2.25.02-3.33-.19-5.43-1.03-10.82-1.38-16.36-.69-5.99.74-12.06.87-18.54,1.29,0-4.83-.05-8.81.07-12.78.01-.47.9-1.18,1.49-1.31,4.79-1.04,9.51-2.08,14,1.34,4.06,3.09,7.01,2.86,11.34-.26,1.35-.97,2.57-2.13,3.87-3.23Z"/>
      <path class="cls-1" d="M24.9,127.79H.56c1.61-4.36.46-8.2.41-12.01-.05-3.82.55-7.68.07-11.62-.39-3.21,1.13-4.54,4.49-4.47,5.3.11,10.6.37,15.9.6,1.3.06,3.2,2.63,2.87,3.88-.79,3-1.84,5.96-2.38,9-.24,1.39.23,3.07.85,4.39.75,1.6,2.05,2.86.95,4.9-.34.63.14,1.75.35,2.62.23.97.58,1.92.82,2.71Z"/>
      <path class="cls-1" d="M31.93,124.37v-22.26c2.49,2.1,5.17,1.69,7.8.85,1.8-.58,3.45-.81,5.3-.04,1.03.43,2.49.54,3.51.16,3.5-1.33,6.96-1.68,10.98-.04v21.33h-27.6Z"/>
      <path class="cls-1" d="M2.13,163.7v-22.52c4.43,4.28,8.84,3.25,13.27,2.34.62-.13,1.36.46,2.05.49,1.02.04,2.22.19,3.05-.24,3.3-1.73,8.5,1.02,8.67,4.72.16,3.45.39,6.9.48,10.35.04,1.46-.17,2.94-.29,4.87H2.13Z"/>
      <path class="cls-1" d="M1.25,84.52v-26.87h22.14c-.61,3.11-1.23,6.05-1.76,9.01-.52,2.9-.68,5.89-1.47,8.7-.82,2.89-2.17,5.64-3.41,8.39-.19.41-1.05.72-1.61.72-4.56.06-9.12.03-13.89.03Z"/>
      <path class="cls-1" d="M87.72,68.96h-9.81c.19-4.29.39-8.54.58-12.79.37-8.29.58-16.58,1.13-24.86.61-9.17.38-18.5,4.23-27.17.25-.56.53-1.11.8-1.67.25.02.51.03.76.05.76,22,1.52,44,2.3,66.44Z"/>
      <path class="cls-1" d="M27.57,81.66c8.03-.49,15.92-.99,23.82-1.4.69-.04,1.92.47,2.05.95,1.15,4.52,2.17,9.07,3.08,13.64.12.6-.56,1.95-.96,1.98-2.79.25-5.61.37-8.42.3-2.82-.07-5.62-.48-8.44-.62-3.31-.17-6.64-.16-9.95-.37-.46-.03-1.33-1.09-1.23-1.33,1.74-4.06.16-8.02-.22-12-.02-.26.12-.54.26-1.15Z"/>
      <path class="cls-1" d="M63.16,46.35c.97,8.25,1.89,16.01,2.82,23.9-6.16.33-12.34.66-18.66,1,.07-1.2-.2-2.78.31-4.05,2.73-6.73-.76-12.37-2.9-18.27-.15-.42-.26-.85-.46-1.47,6.55-.38,12.92-.76,18.89-1.11Z"/>
      <path class="cls-1" d="M28.83,29.57c9.69-.58,18.53-1.11,28.05-1.68.37,3.97.73,7.89,1.12,12.13-3.33.46-6.32.89-9.3,1.29-1.65.22-3.31.47-4.97.53-1.86.06-3.72-.18-5.58-.1-1.68.07-3.42.15-4.99.67-1.61.53-2.92.7-3.19-1.24-.52-3.75-.76-7.53-1.15-11.59Z"/>
      <path class="cls-1" d="M26.61,47.8c3.3.18,6.52.28,9.73.6.54.05,1.21.96,1.44,1.61,1.05,2.94,2.08,5.89,2.85,8.9.3,1.17,0,2.55-.25,3.79-.48,2.34-1.05,4.67-1.75,6.96-.59,1.94-1.3,3.86-2.22,5.66-.25.5-1.45.75-2.19.72-2.78-.12-5.54-.4-8.11-.6-.32-1.43-.81-2.8-.88-4.19-.06-1.34.33-2.69.51-4.04.29-2.21.75-4.42.83-6.65.13-4.11.04-8.23.04-12.74Z"/>
      <path class="cls-1" d="M83.29,90.63c-7.07-.46-13.66-.87-20.24-1.34-.73-.05-1.93-.32-2.07-.77-1.11-3.46-2.02-6.99-3.06-10.74,9.01-1.93,17.38,1.37,26.75.43-.5,4.49-.94,8.43-1.38,12.42Z"/>
      <path class="cls-1" d="M121.91,64.87c-.74-12.17-1.47-24.06-2.21-36.18,2.46-.53,4.84-1.95,6.51,1.25.77-.24,1.45-.45,2.31-.71v34.68c-2.24.33-4.22.61-6.61.96Z"/>
      <path class="cls-1" d="M75.67,252.16c-2.69.15-4.93.14-7.13.43-2.26.3-3.28-1.12-3.4-2.77-.22-2.85-2.06-5.54.12-8.76,1.11-1.64.44-4.86-.16-7.17-.47-1.83-.29-2.57,1.43-3.05,2.38-.66,4.73-1.48,7.15-1.94.55-.11,1.9.97,1.91,1.51.13,7.16.09,14.33.09,21.74Z"/>
      <path class="cls-1" d="M119.79,120.99c-.32-6.28-.73-12.37-.92-18.46-.21-7.06-.12-7.06,7.29-8.75.49,7.17.97,14.29,1.48,21.41.18,2.59-.94,3.89-3.54,4.23-1.32.18-2.56.9-4.32,1.56Z"/>
      <path class="cls-1" d="M66.95,55.07c-.33-7.94-.66-15.75-1-23.96,2.56-.81,5.31-1.68,8.77-2.77-.35,4.58-.62,8.53-.96,12.49-.31,3.52-.78,7.04-1.02,10.56-.16,2.32-.88,3.71-3.52,3.34-.7-.1-1.45.2-2.27.33Z"/>
      <path class="cls-1" d="M126.18,144.1c-2-.37-4.22-.46-6.12-1.29-.9-.39-1.74-2.23-1.66-3.34.24-3.46,1.37-6.89,1.29-10.32-.05-2.31.35-2.9,2.43-2.59,1.1.17,2.2.37,3.31.52,3.25.46,4.15,1.46,3.62,4.69-.31,1.9-1.15,3.72-1.6,5.61-.48,2.04-.79,4.12-1.27,6.71Z"/>
    </g>
  </g>
</svg>