<?xml version="1.0" encoding="UTF-8"?>
<svg id="Layer_2" data-name="Layer 2" xmlns="http://www.w3.org/2000/svg" viewBox="0 0 48.66 21.48">
  <defs>
    <style>
      .cls-1 {
        fill: #a08e80;
      }
    </style>
  </defs>
  <g id="TEXT">
    <g>
      <path class="cls-1" d="M43.59,5.99c-.51.12-1.02.23-1.52.37-.74.21-1.5.34-2.26.41-.09,0-.17.08-.26.09-.4.02-.8.05-1.2.05-.63,0-1.27-.04-1.9-.05-.87,0-1.73,0-2.6,0-.41,0-.82.06-1.23.07-.95,0-1.9,0-2.84,0-.47,0-.95,0-1.42,0-.47,0-.94-.01-1.41-.02-.15,0-.3.02-.45.03-.21.02-.42.06-.63.08-.2.02-.4.03-.6.04-.5.02-1.01.04-1.51.06-.64.03-1.28.07-1.91.09-.45.01-.9,0-1.35.01-.37.01-.74.04-1.11.07-.22.02-.43.06-.65.08-.43.04-.86.07-1.29.1-.47.03-.95.05-1.43.06-.58.02-1.16,0-1.73.05-.53.04-1.05.14-1.57.2-.17.02-.36-.03-.52.01-.2.05-.38.17-.57.26-.29.13-.42.41-.62.63-.07.07-.21.08-.32.1-.12.03-.24.04-.35.06-.22.04-.5-.2-.52-.44,0-.08.02-.16-.01-.23-.03-.06-.11-.13-.16-.13-.51.04-1.02.09-1.52.17-.09.01-.18.17-.23.28-.04.08-.04.18-.05.27-.21,0-.41-.2-.41-.39-.02-.94-.03-1.88-.05-2.82,0-.08.03-.17.05-.29.31.03.6.09.9.09.56.01,1.12,0,1.68,0,.53,0,1.06.04,1.59.06.7.03,1.4.08,2.11.11.52.03,1.04.04,1.56.06.9.04,1.8.1,2.71.14.62.02,1.24,0,1.86,0,.17,0,.34-.03.55-.06-.72.38-1.45.47-2.2.46-.39,0-.78-.06-1.17-.08-.38-.01-.76,0-1.14,0-.44,0-.88-.03-1.31-.05-.26-.01-.51-.06-.76-.08-.54-.04-1.08-.06-1.62-.1-.54-.03-1.08-.09-1.61-.1-.49-.01-.98.03-1.47.03-.38,0-.75,0-1.15,0,0,.1-.01.23-.02.36-.02,0-.04,0-.05,0,0-.07,0-.15-.01-.22-.02,0-.04,0-.05,0v1.99c.67-.08,1.32-.15,1.97-.24.07,0,.15-.07.18-.13.25-.43.61-.55,1.08-.41,0,.12.03.29-.03.37-.12.15-.29.27-.46.36-.19.1-.32.37-.22.56.05.1.27.08.37-.06.11-.16.2-.33.29-.5.06-.11.09-.23.12-.3.35-.02.66,0,.96-.06,1.57-.32,3.15-.37,4.74-.33.5.01,1.01-.07,1.51-.1.49-.03.99-.06,1.48-.09.48-.03.97-.05,1.45-.07.91-.04,1.82-.08,2.73-.12.72-.04,1.44-.1,2.16-.13,1-.04,2.01-.05,3.01-.06,1.1-.02,2.2-.03,3.29-.03,1.24,0,2.48.02,3.73.03.83,0,1.67.03,2.5-.01.53-.02,1.06-.14,1.59-.23.89-.15,1.77-.32,2.66-.45.22-.03.45.02.68.04,0,.04,0,.08,0,.11Z"/>
      <path class="cls-1" d="M4.02.51c-.07.09-.13.17-.19.25-.11.03-.2-.26-.31,0-.13-.15-.25-.14-.43-.08-.22.07-.49.03-.73,0-.14-.02-.26-.11-.4-.15-.09-.02-.18-.01-.2-.13,0-.01-.06-.02-.09-.02-.14.04-.28.1-.42.13-.09.02-.18.02-.27.02-.33,0-.67,0-1,0C0,.17.39-.08.78.02c.21.06.43.08.65.11.47.05.94.09,1.41.13.34.03.68.05,1.02.08.27.02.53.05.79.08-.17,1.65-.33,3.25-.49,4.87-.03-.01-.07-.03-.14-.06v1.97s.03,0,.05,0v-1.81c.16.24.04,5.22-.11,5.79v-.31s-.04,0-.06,0c-.02.16-.04.31-.05.47.02,0,.04.01.06.02l.08-.11s.03,0,.05,0c0,.08,0,.16,0,.24-.04.38-.09.76-.12,1.14-.07.87-.13,1.74-.22,2.61-.07.67-.17,1.33-.27,1.99-.05.36-.17.71-.19,1.07-.03.36,0,.72.03,1.08.03.62.07,1.24.1,1.86,0,.08-.02.15-.08.22-.08-.71-.16-1.42-.25-2.19-.21.24-.17.6-.51.6-.16-.3-.04-.56.06-.82.21-.51.2-1.03.1-1.58-.12-.68-.19-1.37-.27-2.06-.1-.82-.21-1.63-.31-2.45-.08-.63-.13-1.27-.21-1.9-.09-.65-.2-1.29-.29-1.94-.08-.56-.14-1.13-.22-1.69-.09-.66-.2-1.31-.29-1.97-.14-.96-.28-1.93-.41-2.89-.07-.52-.13-1.04-.17-1.55-.02-.25.29-.45.5-.32.11.07.16.23.24.35-.1-.01-.26-.1-.22.14,0,0-.08.03-.12.05.05.04.13.07.13.11,0,.09-.03.18-.04.26-.03.17-.14.37.08.42-.02.13-.05.23-.04.32.12.87.24,1.73.37,2.6.09.61.16,1.22.25,1.83.09.63.19,1.26.33,1.88v-.32s.04,0,.05,0c.1.71.2,1.42.3,2.18-.07-.06-.09-.08-.11-.11-.02,0-.03.01-.05.02.09.66.18,1.33.26,1.99.02,0,.03,0,.05,0l.03-.16s.03,0,.05,0c.09.74.18,1.48.27,2.21-.02,0-.03,0-.05.01-.02-.06-.05-.12-.06-.16.12.62.23,1.27.36,1.94.03-.19.07-.36.09-.54.13-1.19.27-2.37.37-3.56.07-.88.08-1.76.12-2.64.02-.5.07-1.01.08-1.51.02-.72,0-1.43.02-2.15.04-1.56.12-3.11.39-4.65.04-.23.16-.49-.08-.73ZM2.87,16.12s.03,0,.05,0c-.03-.38-.07-.75-.1-1.13-.02,0-.04,0-.06,0,.04.37.08.75.12,1.12ZM3.98,8.5s.03,0,.05,0v-.91s-.03,0-.05,0v.91Z"/>
      <path class="cls-1" d="M47.31,5.46c.28.1.55.19.83.29.21.08.42.15.53.4-1.03-.41-2.11-.37-3.17-.42-.2-.01-.42,0-.58-.2-.06-.07-.2-.06-.3-.09,0-.02.01-.04.02-.06.17.02.34.04.5.05.23.02.48.07.7.03.44-.08.88-.06,1.31,0,.06,0,.11,0,.17.01Z"/>
      <path class="cls-1" d="M47.31,5.46c-.06,0-.11,0-.17-.01-.24-.05-.49-.09-.73-.14-.04,0-.08,0-.13,0v-.08c.41.05.81.1,1.21.15,0,.02,0,.05,0,.07-.06,0-.12,0-.18.01Z"/>
      <path class="cls-1" d="M2.87,16.12c-.04-.37-.08-.75-.12-1.12.02,0,.04,0,.06,0,.03.38.07.75.1,1.13-.02,0-.03,0-.05,0Z"/>
      <path class="cls-1" d="M3.98,8.5v-.91s.03,0,.05,0v.91s-.03,0-.05,0Z"/>
    </g>
  </g>
</svg>