<?xml version="1.0" encoding="UTF-8"?>
<svg id="Layer_2" data-name="Layer 2" xmlns="http://www.w3.org/2000/svg" viewBox="0 0 97.96 43.24">
  <defs>
    <style>
      .cls-1 {
        fill: #fff3df;
      }
    </style>
  </defs>
  <g id="TEXT">
    <g>
      <path class="cls-1" d="M87.76,12.07c-1.02.24-2.05.45-3.06.74-1.49.43-3.01.68-4.55.82-.18.02-.35.16-.53.18-.8.05-1.61.1-2.41.09-1.27-.01-2.55-.09-3.82-.1-1.74-.02-3.49-.01-5.23.01-.82.01-1.64.13-2.47.13-1.91.01-3.82-.01-5.73-.01-.96,0-1.91.01-2.87,0-.94,0-1.89-.03-2.83-.03-.3,0-.6.03-.9.07-.43.05-.85.12-1.28.17-.4.04-.8.07-1.2.09-1.01.04-2.03.08-3.05.12-1.28.06-2.57.14-3.85.18-.91.03-1.82,0-2.72.02-.75.02-1.49.07-2.24.13-.44.03-.87.12-1.3.16-.86.07-1.73.14-2.59.19-.96.05-1.91.09-2.87.12-1.16.04-2.33,0-3.49.09-1.06.08-2.11.28-3.17.41-.35.04-.72-.06-1.05.03-.4.11-.77.35-1.15.52-.58.27-.84.84-1.25,1.26-.14.14-.42.16-.64.21-.23.05-.47.07-.71.11-.44.07-1-.4-1.05-.89-.02-.16.03-.33-.02-.46-.05-.12-.22-.27-.32-.26-1.02.09-2.05.18-3.06.34-.18.03-.35.34-.47.56-.09.15-.08.36-.11.54-.42-.02-.82-.4-.82-.79-.04-1.89-.07-3.79-.09-5.68,0-.17.05-.33.1-.59.62.07,1.21.17,1.81.19,1.13.03,2.25-.01,3.38,0,1.07.02,2.13.07,3.2.13,1.41.07,2.83.16,4.24.23,1.05.05,2.1.07,3.14.12,1.82.09,3.63.21,5.45.27,1.25.04,2.49.02,3.74,0,.34,0,.69-.07,1.12-.12-1.45.76-2.92.94-4.43.92-.79-.01-1.57-.13-2.35-.16-.76-.03-1.53.01-2.29,0-.88-.02-1.76-.05-2.64-.1-.51-.03-1.02-.13-1.54-.16-1.09-.07-2.18-.13-3.27-.19-1.08-.07-2.17-.17-3.25-.19-.99-.02-1.98.05-2.96.07-.76.01-1.51,0-2.31,0-.01.2-.02.46-.04.72-.04,0-.07,0-.11,0,0-.15-.01-.3-.02-.45-.04,0-.07,0-.11,0v4c1.34-.16,2.66-.31,3.97-.49.13-.02.29-.14.37-.27.5-.86,1.23-1.11,2.18-.83-.01.24.07.58-.06.74-.24.3-.58.55-.93.73-.38.2-.65.75-.44,1.13.1.2.54.16.74-.12.23-.31.41-.67.58-1.01.11-.22.18-.46.24-.61.7-.04,1.34,0,1.94-.13,3.15-.65,6.34-.74,9.55-.66,1.01.02,2.02-.14,3.04-.21.99-.07,1.99-.12,2.99-.18.97-.05,1.95-.09,2.92-.14,1.83-.08,3.66-.15,5.49-.25,1.45-.07,2.89-.21,4.34-.26,2.02-.07,4.04-.1,6.07-.13,2.21-.03,4.42-.06,6.63-.06,2.5,0,5,.04,7.5.05,1.68,0,3.36.06,5.03-.02,1.07-.05,2.14-.28,3.2-.46,1.78-.3,3.56-.64,5.35-.91.44-.07.91.05,1.37.08,0,.08.01.15.02.23Z"/>
      <path class="cls-1" d="M8.1,1.04c-.13.17-.25.34-.37.5-.22.05-.4-.53-.62-.02-.26-.31-.49-.27-.86-.16-.45.13-.98.06-1.46,0-.27-.03-.52-.23-.8-.31-.17-.05-.36-.02-.4-.26,0-.02-.12-.05-.18-.03-.28.08-.56.19-.85.26-.18.04-.37.04-.55.04-.67,0-1.34,0-2.02,0C0,.33.79-.16,1.56.05c.43.11.87.17,1.31.22.94.1,1.89.18,2.83.26.69.06,1.37.1,2.06.15.54.04,1.07.11,1.59.16-.34,3.31-.66,6.54-.99,9.8-.07-.03-.14-.06-.29-.11v3.97s.06,0,.1,0v-3.64c.32.48.08,10.51-.22,11.65v-.62s-.08,0-.12,0c-.04.32-.07.63-.11.95.04.01.08.02.11.03l.16-.23s.07.01.1.02c0,.16.01.33,0,.49-.08.77-.17,1.53-.24,2.3-.15,1.75-.26,3.51-.44,5.26-.14,1.34-.34,2.68-.54,4.01-.11.72-.33,1.43-.39,2.16-.06.72.02,1.45.05,2.17.06,1.25.14,2.5.21,3.75,0,.15-.05.31-.17.45-.16-1.43-.33-2.87-.51-4.4-.42.47-.34,1.21-1.04,1.22-.32-.61-.09-1.12.13-1.65.42-1.03.4-2.08.2-3.18-.25-1.37-.37-2.76-.55-4.15-.21-1.64-.43-3.29-.63-4.93-.15-1.27-.26-2.55-.43-3.82-.17-1.31-.4-2.61-.58-3.91-.16-1.13-.28-2.27-.44-3.4-.19-1.32-.4-2.64-.59-3.97-.28-1.94-.57-3.88-.83-5.82-.14-1.04-.26-2.08-.35-3.13-.04-.51.58-.91,1.01-.64.22.14.33.46.48.7-.21-.03-.52-.19-.44.29,0,.02-.16.06-.25.1.09.07.26.14.27.22.01.17-.06.35-.09.53-.06.35-.28.74.17.85-.03.26-.1.46-.07.65.24,1.74.49,3.48.74,5.23.17,1.23.33,2.45.5,3.68.18,1.27.39,2.53.67,3.78v-.64s.07,0,.11-.01c.2,1.43.4,2.86.61,4.4-.13-.12-.18-.17-.23-.22-.03.01-.07.02-.1.03.18,1.34.35,2.68.53,4.02.03,0,.06,0,.1,0l.07-.32s.06,0,.09-.01c.18,1.49.36,2.97.54,4.46-.04,0-.07.02-.11.03-.05-.12-.09-.24-.12-.32.23,1.25.47,2.55.72,3.9.06-.38.13-.73.17-1.08.25-2.39.54-4.77.74-7.16.14-1.77.15-3.55.23-5.32.05-1.02.14-2.03.16-3.04.03-1.44,0-2.88.04-4.33.09-3.13.25-6.26.78-9.36.08-.46.33-.99-.17-1.46ZM5.77,32.44s.06,0,.09,0c-.07-.76-.14-1.51-.2-2.27-.04,0-.09,0-.13.01.08.75.16,1.5.24,2.25ZM8,17.12s.06,0,.09,0v-1.82s-.06,0-.09,0v1.83Z"/>
      <path class="cls-1" d="M95.23,11c.56.19,1.12.37,1.67.58.42.15.85.3,1.06.8-2.08-.82-4.24-.74-6.38-.85-.41-.02-.85-.02-1.17-.4-.12-.13-.4-.12-.61-.18.01-.04.02-.09.04-.13.34.03.67.08,1.01.1.47.03.96.14,1.41.06.89-.17,1.76-.13,2.64,0,.11,0,.22.02.33.02Z"/>
      <path class="cls-1" d="M95.23,11c-.11,0-.22-.02-.33-.02-.49-.09-.98-.19-1.47-.28-.08-.02-.17,0-.26,0l.02-.17c.81.1,1.61.21,2.42.31,0,.05,0,.09,0,.14-.12,0-.25.02-.37.03Z"/>
      <path class="cls-1" d="M5.77,32.44c-.08-.75-.16-1.5-.24-2.25.04,0,.09,0,.13-.01.07.76.14,1.51.2,2.27-.03,0-.06,0-.09,0Z"/>
      <path class="cls-1" d="M8,17.12v-1.83s.06,0,.09,0v1.82s-.06,0-.09,0Z"/>
    </g>
  </g>
</svg>